<?xml version="1.0" encoding="UTF-8"?><svg id="Calque_1" xmlns="http://www.w3.org/2000/svg" viewBox="0 0 51.26 70.08"><path d="M17.88,44.38c-4.94,0-9.59.11-14.24-.07-1.24-.05-2.97-.07-3.51-1.58-.45-1.26.37-2.5,1.1-3.42C11.11,26.96,21.08,14.69,31.03,2.39c.37-.45.75-.95,1.15-1.29,1.22-1.05,2.59-1.31,3.44-.95,1.27.54,1.65,2.16,1.52,3.2-.55,4.29-1.46,8.53-2.23,12.79-.53,2.94-1.05,5.88-1.62,9.11.89.08,1.59.19,2.29.2,4,.02,8.01-.11,12,.08,1.25.06,2.78.04,3.53,1.56.55,1.11-.35,2.5-1.08,3.42-7.84,9.82-15.78,19.56-23.7,29.33-2.2,2.72-4.4,5.44-6.59,8.15-1.08,1.33-2.23,2.71-4.17,1.81-2.06-.96-1.67-2.83-1.35-4.58,1.1-5.98,2.22-11.95,3.32-17.93.15-.81.2-1.64.36-2.91Z"/></svg>