<?xml version="1.0" encoding="UTF-8"?><svg id="Calque_1" xmlns="http://www.w3.org/2000/svg" viewBox="0 0 642.82 175.71"><defs><style>.cls-1{fill:#fff;}</style></defs><path class="cls-1" d="M147.74,6.62v164.71h-41.25V62.56l-59.61,59.61v49.16H5.63v-60.46l63.57-63H5.63V6.62h142.11Z"/><path class="cls-1" d="M245.6,93.35v15.82h-82.5v-40.12h82.5v24.3Z"/><path class="cls-1" d="M434.47,171.33V47.86h-10.45V6.62h51.7v164.71h-41.25Z"/><path class="cls-1" d="M553.68,129.8l-63.85-63.85h52.55l48.59,49.16V6.34h41.25v164.99h-141.54v-40.68h63.28l-.28-.85Z"/><path class="cls-1" d="M376.06,6.34h-112.89v164.99h142.39V6.34h-29.5ZM344.71,47.02l-40,46.63v-46.63h40ZM322.51,130.64l41.8-48.72v48.72h-41.8Z"/></svg>