<?xml version="1.0" encoding="UTF-8"?><svg id="Calque_1" xmlns="http://www.w3.org/2000/svg" viewBox="0 0 166.62 633.19"><defs><style>.cls-1{fill:#000;}</style></defs><path class="cls-1" d="M.28,486.68h164.71v41.25H56.22l59.61,59.61h49.16v41.25h-60.46l-63-63.57v63.57H.28v-142.11Z"/><path class="cls-1" d="M87.02,388.82h15.82v82.5h-40.12v-82.5h24.3Z"/><path class="cls-1" d="M164.99,199.94H41.53v10.45H.28v-51.7h164.71v41.25Z"/><path class="cls-1" d="M123.46,80.74l-63.85,63.85v-52.55l49.16-48.59H0V2.2h164.99v141.54h-40.68v-63.28l-.85.28Z"/><path class="cls-1" d="M0,258.35v112.89h164.99v-142.39H0v29.5ZM40.68,289.7l46.63,40h-46.63v-40ZM124.31,311.9l-48.72-41.8h48.72v41.8Z"/></svg>