<?xml version="1.0" encoding="UTF-8"?><svg id="Calque_1" xmlns="http://www.w3.org/2000/svg" viewBox="0 0 40.05 45.91"><defs><style>.cls-1{fill:#2195f1;}.cls-2{fill:#dadada;}</style></defs><path class="cls-1" d="M-.19,0C13.22,0,26.63,0,40.05,0c-.22,2.5-.44,5.01-.66,7.51-.26,2.92-.52,5.84-.78,8.76-.25,2.82-.5,5.63-.75,8.45-.26,2.88-.52,5.75-.77,8.63-.22,2.52-.45,5.04-.66,7.56-.03.36-.15.52-.52.62-5.11,1.41-10.22,2.84-15.33,4.28-.45.13-.85.13-1.3,0-5.13-1.45-10.27-2.88-15.41-4.31-.29-.08-.41-.21-.43-.51-.05-.79-.13-1.58-.2-2.37-.28-3.2-.56-6.41-.84-9.61-.29-3.22-.58-6.44-.86-9.66-.28-3.2-.56-6.41-.84-9.61C.39,6.5.1,3.25-.19,0ZM19.93,8.46c-2.16,0-4.31,0-6.47,0-1.96,0-3.92,0-5.88,0-.21,0-.41-.04-.38.31.11,1.31.21,2.63.27,3.94.02.47.19.57.64.57,6.21-.04,12.42-.05,18.63-.08.35,0,.45.06.41.44-.13,1.39-.23,2.77-.3,4.16-.02.45-.15.57-.6.57-5.9.06-11.79.14-17.69.2-.45,0-.55.13-.5.55.16,1.28.3,2.56.41,3.84.03.38.18.45.52.44,3.73-.02,7.45-.03,11.18-.04,1.93,0,3.86,0,5.79-.02.31,0,.4.06.36.39-.24,2.06-.46,4.13-.67,6.2-.03.32-.13.49-.48.58-1.65.42-3.29.87-4.94,1.32-.21.06-.41.07-.62.01-1.67-.46-3.34-.91-5.02-1.35-.26-.07-.36-.18-.39-.45-.1-1.18-.22-2.35-.31-3.53-.02-.26-.1-.36-.37-.36-1.47,0-2.93,0-4.4,0-.27,0-.37.07-.35.35.23,2.49.46,4.98.67,7.46.03.3.17.39.43.46,3.23.88,6.45,1.78,9.68,2.68.24.07.46.06.7,0,3.17-.88,6.33-1.77,9.51-2.61.47-.12.6-.34.64-.78.35-4.05.72-8.11,1.08-12.16.37-4.2.73-8.41,1.13-12.61.04-.46-.1-.51-.48-.5-4.07.01-8.14,0-12.21,0Z"/><path class="cls-2" d="M19.93,8.46c4.07,0,8.14,0,12.21,0,.39,0,.53.04.48.5-.39,4.2-.75,8.4-1.13,12.61-.36,4.05-.73,8.11-1.08,12.16-.04.44-.17.66-.64.78-3.18.85-6.34,1.73-9.51,2.61-.24.07-.46.07-.7,0-3.22-.9-6.45-1.79-9.68-2.68-.26-.07-.4-.16-.43-.46-.21-2.49-.44-4.98-.67-7.46-.03-.29.08-.36.35-.35,1.47,0,2.93.01,4.4,0,.27,0,.35.1.37.36.09,1.18.21,2.35.31,3.53.02.27.12.38.39.45,1.68.44,3.35.9,5.02,1.35.21.06.41.04.62-.01,1.64-.45,3.29-.9,4.94-1.32.34-.09.44-.26.48-.58.21-2.07.43-4.14.67-6.2.04-.33-.04-.4-.36-.39-1.93.02-3.86,0-5.79.02-3.73.01-7.45.02-11.18.04-.35,0-.49-.06-.52-.44-.11-1.28-.25-2.56-.41-3.84-.05-.43.04-.55.5-.55,5.9-.06,11.79-.14,17.69-.2.45,0,.58-.12.6-.57.07-1.39.17-2.78.3-4.16.04-.38-.07-.44-.41-.44-6.21.03-12.42.04-18.63.08-.45,0-.62-.1-.64-.57-.06-1.31-.16-2.63-.27-3.94-.03-.35.17-.31.38-.31,1.96,0,3.92,0,5.88,0,2.16,0,4.31,0,6.47,0Z"/></svg>