<?xml version="1.0" encoding="UTF-8"?><svg id="Calque_1" xmlns="http://www.w3.org/2000/svg" viewBox="0 0 45.93 45.89"><defs><style>.cls-1{fill:#f05436;}.cls-2{fill:#fb490c;}.cls-3{fill:#dadada;}</style></defs><path class="cls-2" d="M21.16,0h3.59c.05.11.15.08.23.09,3.44.31,6.64,1.35,9.63,3.09,8.07,4.69,12.58,14.28,11.01,23.47-.89,5.2-3.23,9.63-7.12,13.18-5.29,4.81-11.55,6.76-18.63,5.87-5.01-.64-9.35-2.8-12.96-6.34-3.65-3.59-5.87-7.92-6.66-12.99-.08-.51-.04-1.03-.25-1.52v-3.77c.11-.04.08-.14.09-.23.08-.79.19-1.57.34-2.35C2.23,9.1,10.05,1.64,19.55.26c.54-.08,1.09-.06,1.61-.25ZM14.69,28.19c-.2.09-.38.16-.57.25-.77.38-1.35.93-1.58,1.78-.44,1.64.3,3.13,1.91,3.77,1.24.49,2.53.53,3.83.37,2.28-.29,3.49-1.75,3.34-4.06-.06-.87-.45-1.53-1.21-1.96-.52-.3-1.1-.46-1.67-.62-.55-.15-1.1-.26-1.61-.52-.41-.21-.62-.54-.58-1.01.04-.49.31-.76.76-.88.21-.06.43-.11.65-.17,2.05-.57,3.34-2.61,2.91-4.7-.09-.41,0-.54.38-.62.2-.04.51-.02.5-.39-.01-.69,0-1.37,0-2.06,0-.21-.07-.26-.27-.19-.31.11-.62.22-.94.29-.76.17-1.46.23-2.25-.1-2.27-.93-4.85.31-5.53,2.56-.26.88-.25,1.77.07,2.64.34.94.86,1.72,1.81,2.16-.97.82-1.09,2.45.05,3.46ZM28.15,22.71c.03.9-.07,1.99.09,3.07.18,1.2.59,2.25,1.91,2.6,1.04.28,2.07.14,3.07-.25.21-.08.25-.21.25-.41,0-.58-.02-1.17,0-1.75.01-.35-.03-.43-.4-.27-1.38.6-2.13.14-2.16-1.34-.03-1.48,0-2.96-.02-4.43,0-.28.09-.37.36-.35.63.03,1.25.03,1.88.06.26.01.34-.07.33-.32-.01-.58-.02-1.17,0-1.75.01-.31-.11-.37-.39-.36-.61.02-1.22,0-1.84,0-.28,0-.38-.1-.36-.36.02-.48.03-.96.06-1.43.02-.24-.03-.35-.3-.34-.75.02-1.49.01-2.24,0-.22,0-.33.04-.28.3.05.29.04.59.05.89.02.89.02.91-.88.93-.26,0-.33.1-.32.34.01.42,0,.84,0,1.25,0,.27-.11.6.07.77.12.11.45.02.68,0,.35-.04.46.08.45.45-.03.84,0,1.67,0,2.7ZM25.76,22.78s0,0,0,0c0-1.75,0-3.49,0-5.24,0-.3-.1-.35-.36-.34-.45.01-.9,0-1.34,0-1.08,0-1.07,0-1.06,1.08.04,3.22.07,6.45-.04,9.67,0,.3.04.43.37.41.69-.03,1.37-.02,2.06,0,.25,0,.37-.03.36-.34-.02-1.75,0-3.49,0-5.24ZM22.64,13.35c0,1,.85,1.89,1.79,1.87.88-.02,1.65-.88,1.66-1.85,0-.99-.77-1.88-1.66-1.89-.95-.01-1.79.86-1.79,1.87Z"/><path class="cls-3" d="M14.69,28.19c-1.14-1.01-1.02-2.65-.05-3.46-.95-.44-1.47-1.23-1.81-2.16-.32-.87-.33-1.76-.07-2.64.68-2.26,3.26-3.5,5.53-2.56.79.33,1.49.27,2.25.1.32-.07.63-.18.94-.29.2-.07.27-.02.27.19,0,.69,0,1.37,0,2.06,0,.37-.31.35-.5.39-.39.08-.46.21-.38.62.43,2.09-.86,4.13-2.91,4.7-.22.06-.43.11-.65.17-.44.13-.72.4-.76.88-.04.48.17.8.58,1.01.51.26,1.07.37,1.61.52.58.16,1.15.32,1.67.62.76.44,1.16,1.09,1.21,1.96.15,2.31-1.06,3.77-3.34,4.06-1.31.17-2.6.13-3.83-.37-1.61-.64-2.35-2.13-1.91-3.77.23-.86.81-1.41,1.58-1.78.18-.09.37-.17.57-.25ZM17.02,22.96c.38,0,.87-.16,1.11-.71.32-.72.32-1.46-.06-2.16-.27-.49-.71-.75-1.29-.75-.58,0-.99.29-1.26.79-.25.46-.3.96-.23,1.48.13.9.63,1.34,1.72,1.34ZM17.25,32.23c.14-.01.39-.02.64-.05.15-.02.29-.07.43-.12.51-.2.77-.59.77-1.14,0-.52-.24-.91-.76-1.1-.84-.3-1.7-.3-2.55-.02-.52.18-.79.6-.79,1.13,0,.51.26.88.78,1.09.44.18.9.2,1.48.21Z"/><path class="cls-3" d="M28.15,22.71c0-1.03-.02-1.87,0-2.7.01-.36-.1-.48-.45-.45-.23.03-.56.12-.68,0-.18-.17-.06-.51-.07-.77-.01-.42,0-.84,0-1.25,0-.24.06-.34.32-.34.9-.02.9-.04.88-.93,0-.3,0-.6-.05-.89-.04-.26.06-.3.28-.3.75,0,1.49.01,2.24,0,.28,0,.32.1.3.34-.03.48-.04.95-.06,1.43-.01.27.09.37.36.36.61-.02,1.22,0,1.84,0,.28,0,.4.05.39.36-.02.58-.02,1.16,0,1.75,0,.26-.08.34-.33.32-.63-.03-1.25-.03-1.88-.06-.27-.01-.37.08-.36.35.01,1.48-.02,2.96.02,4.43.03,1.48.78,1.94,2.16,1.34.37-.16.41-.08.4.27-.02.58-.01,1.16,0,1.75,0,.2-.04.33-.25.41-1,.4-2.02.53-3.07.25-1.31-.35-1.73-1.4-1.91-2.6-.16-1.08-.07-2.18-.09-3.07Z"/><path class="cls-3" d="M25.76,22.78c0,1.75,0,3.49,0,5.24,0,.3-.11.34-.36.34-.69-.01-1.37-.02-2.06,0-.34.01-.38-.11-.37-.41.11-3.22.07-6.45.04-9.67-.01-1.08-.03-1.08,1.06-1.08.45,0,.9.02,1.34,0,.26,0,.36.04.36.34-.02,1.75,0,3.49,0,5.24,0,0,0,0,0,0Z"/><path class="cls-3" d="M22.64,13.35c0-1,.84-1.88,1.79-1.87.89.01,1.66.89,1.66,1.89,0,.97-.78,1.83-1.66,1.85-.94.02-1.79-.87-1.79-1.87Z"/><path class="cls-1" d="M17.02,22.96c-1.09,0-1.59-.44-1.72-1.34-.07-.52-.02-1.02.23-1.48.27-.49.68-.78,1.26-.79.58,0,1.02.25,1.29.75.38.7.38,1.44.06,2.16-.24.55-.74.7-1.11.71Z"/><path class="cls-1" d="M17.25,32.23c-.58-.01-1.04-.03-1.48-.21-.51-.21-.78-.58-.78-1.09,0-.53.27-.95.79-1.13.85-.29,1.71-.28,2.55.02.52.18.76.58.76,1.1,0,.55-.27.94-.77,1.14-.14.05-.28.1-.43.12-.25.03-.5.04-.64.05Z"/></svg>