<?xml version="1.0" encoding="UTF-8"?><svg id="Calque_1" xmlns="http://www.w3.org/2000/svg" viewBox="0 0 46.68 44.74"><defs><style>.cls-1{fill:#f2f2f2;}</style></defs><path class="cls-1" d="M46.68,24.28c-.12.87-.19,1.75-.36,2.61-1.67,8.28-6.49,13.97-14.22,17.26-.45.19-.91.35-1.37.49-.99.3-1.66-.19-1.66-1.22,0-1.79,0-3.59.02-5.38.03-1.81-.15-3.55-1.46-4.89,1.3-.3,2.62-.53,3.88-.93,4-1.26,6.04-4.15,6.49-8.22.14-1.23.13-2.49.02-3.72-.15-1.68-.91-3.13-2.01-4.41-.18-.21-.21-.38-.13-.65.56-1.84.38-3.66-.25-5.45-.13-.37-.43-.35-.66-.3-.87.18-1.78.31-2.59.64-1.02.42-1.95,1.04-2.94,1.54-.19.1-.46.16-.67.11-3.66-.9-7.31-.89-10.96,0-.21.05-.51-.02-.7-.14-1.44-.88-2.91-1.7-4.59-2.05-1.38-.29-1.53-.2-1.87,1.15-.39,1.55-.43,3.09.08,4.63.04.12,0,.33-.08.43-1.95,2.19-2.43,4.79-2.15,7.61.14,1.49.45,2.94,1.11,4.3,1.18,2.4,3.14,3.86,5.65,4.62,1.2.36,2.44.57,3.67.85-.19.27-.48.57-.65.93-.25.55-.41,1.13-.62,1.7-.06.16-.13.38-.26.43-1.8.7-3.6.88-5.22-.4-.56-.44-1-1.05-1.42-1.64-.84-1.19-1.86-2.08-3.36-2.27-.29-.04-.61,0-.9.08-.37.09-.45.35-.19.65.19.22.41.42.65.56,1.21.73,2.04,1.8,2.52,3.09,1.07,2.89,3.73,3.9,6.49,3.65.5-.05.99-.13,1.56-.2,0,.81,0,1.61,0,2.42,0,.4.01.79.01,1.19,0,1.17-.7,1.68-1.83,1.29-2.97-1.01-5.64-2.54-7.98-4.63C3.7,36.39,1.12,31.94.31,26.6-.87,18.86,1.35,12.14,6.93,6.66,11.9,1.77,18-.37,24.93.05c10.21.62,18.77,7.82,21.14,17.73.26,1.07.35,2.19.52,3.28.03.16.06.32.08.48v2.74Z"/></svg>