<?xml version="1.0" encoding="UTF-8"?><svg id="Calque_1" xmlns="http://www.w3.org/2000/svg" viewBox="0 0 49.68 45.71"><defs><style>.cls-1{fill:#fefefd;}.cls-2{fill:#fb6e26;}.cls-3{fill:#f97910;}.cls-4{fill:#fb490c;}.cls-5{fill:#f7a411;}</style></defs><g id="IryXHi"><path class="cls-1" d="M7.18,4.45h0c-.21.39-.31.83-.43,1.24-.17.56-.43,1.09-.5,1.67-.01.03-.01.05,0,.08-.2.25-.28.55-.33.86,0,0,0,0,0,0-.03.06-.06.11-.08.17-.81,2.47-1.62,4.94-2.41,7.42-.19.61-.46,1.19-.55,1.83-.34.75-.54,1.55-.8,2.32-.66,2.04-1.33,4.07-1.98,6.11-.26.83,0,1.63.68,2.13,1.32.98,2.66,1.93,3.98,2.91,1.8,1.34,3.64,2.62,5.45,3.94,2.9,2.1,5.78,4.21,8.68,6.31,1.94,1.41,3.88,2.82,5.83,4.23.05,0,.1.02.15.03.44-.14.78-.46,1.13-.73,1.18-.91,2.39-1.77,3.58-2.65,2.28-1.67,4.57-3.31,6.85-4.97,1.61-1.17,3.22-2.36,4.83-3.53,2.51-1.82,5.04-3.64,7.55-5.46.79-.57,1.05-1.38.75-2.32-.56-1.73-1.11-3.45-1.69-5.17-.36-1.08-.65-2.17-1.09-3.23-.02-.11-.04-.23-.07-.34-.79-2.42-1.57-4.84-2.36-7.27-1-3.08-2-6.16-3-9.24-.17-.53-.5-.8-.94-.8-.47,0-.78.26-.97.82-.33.99-.65,1.98-.98,2.98-1.46,4.48-2.92,8.97-4.37,13.45-.09.27-.2.37-.49.37-5.86,0-11.73,0-17.59,0-.25,0-.36-.08-.43-.33-.26-.85-.57-1.7-.85-2.54,0-.02,0-.05-.01-.07-.01-.28-.15-.52-.23-.78-.31-.92-.55-1.86-.93-2.76,0,0,0,0,0,0-.39-1.4-.86-2.78-1.34-4.16-.38-1.3-.79-2.58-1.25-3.85h0c-.22-.87-.51-1.72-.82-2.56-.14-.38-.47-.56-.87-.55-.37.01-.7.17-.83.54-.28.82-.53,1.65-.8,2.48-.15.47-.39.92-.46,1.42Z"/><path class="cls-4" d="M24.86,45.71s-.1-.02-.15-.03c.03-.14-.09-.24-.1-.37.01-.04.05-.08.04-.11-.4-1.28-.8-2.55-1.22-3.82-.46-1.41-.94-2.81-1.4-4.22-.66-2.02-1.31-4.04-1.97-6.06-.57-1.77-1.13-3.55-1.71-5.32-.44-1.35-.9-2.69-1.34-4.04-.43-1.31-.84-2.62-1.27-3.93,5.79,0,11.58,0,17.38,0,.26,0,.51.11.77,0-.06.35-.2.67-.31,1.01-.37,1.13-.73,2.25-1.1,3.38-.33,1.02-.67,2.03-1,3.05-.39,1.21-.77,2.43-1.16,3.64-.32.98-.66,1.95-.97,2.93-.36,1.1-.69,2.21-1.05,3.31-.33,1.03-.68,2.05-1.01,3.08-.36,1.09-.72,2.18-1.06,3.27-.4,1.28-.87,2.54-1.2,3.84,0,.02,0,.05-.01.07-.07.03-.08.09-.07.15-.07.04-.08.1-.08.17Z"/><path class="cls-5" d="M24.62,45.31c.01.13.13.23.1.37-1.94-1.41-3.89-2.82-5.83-4.23-2.89-2.1-5.78-4.21-8.68-6.31-1.82-1.32-3.66-2.6-5.45-3.94-1.32-.98-2.66-1.93-3.98-2.91-.68-.51-.94-1.3-.68-2.13.65-2.04,1.32-4.08,1.98-6.11.25-.78.46-1.58.8-2.32.02,0,.04-.02.06-.02.16.2.33.4.49.61,1.07,1.39,2.14,2.79,3.22,4.18.86,1.09,1.75,2.16,2.6,3.26.95,1.22,1.88,2.45,2.83,3.67,1.09,1.4,2.2,2.77,3.29,4.17,1.1,1.42,2.16,2.87,3.28,4.27.88,1.1,1.74,2.21,2.6,3.32.91,1.17,1.86,2.32,2.74,3.51.17.23.29.54.62.62Z"/><path class="cls-5" d="M25.02,45.39s0-.05.01-.07c.16-.02.25-.14.34-.25.97-1.24,1.94-2.48,2.91-3.72,1.4-1.8,2.8-3.61,4.2-5.41.87-1.12,1.75-2.23,2.63-3.34,1.05-1.34,2.11-2.68,3.16-4.03.79-1.01,1.56-2.04,2.35-3.05,1-1.28,2.01-2.56,3.01-3.84.63-.81,1.27-1.61,1.9-2.42.41-.52.83-1.03,1.17-1.6.03,0,.05,0,.08,0,.43,1.05.72,2.15,1.09,3.23.58,1.72,1.13,3.45,1.69,5.17.3.93.04,1.74-.75,2.32-2.52,1.82-5.04,3.63-7.55,5.46-1.61,1.17-3.22,2.36-4.83,3.53-2.28,1.66-4.58,3.3-6.85,4.97-1.2.88-2.41,1.74-3.58,2.65-.35.27-.69.59-1.13.73,0-.07.02-.13.08-.17.07-.03.07-.09.07-.15Z"/><path class="cls-4" d="M46.79,17.65s-.05,0-.08,0c-4.14,0-8.29,0-12.43-.01-.16,0-.27.05-.37.16-.26.1-.51,0-.77,0-5.79,0-11.58,0-17.38,0-.08-.1-.19-.14-.32-.17,0-.08,0-.15,0-.23-.18-.61-.58-1.16-.54-1.85,0-.04-.06-.08-.09-.12-.05-.18-.1-.36-.08-.55,0-.05,0-.09,0-.14v-.02c.3.85.6,1.69.87,2.54.08.25.18.33.43.33,5.86,0,11.73,0,17.59,0,.29,0,.4-.11.49-.37,1.45-4.49,2.91-8.97,4.37-13.45.32-.99.65-1.99.98-2.98C39.63.26,39.95,0,40.41,0c.44,0,.77.28.94.8,1,3.08,2,6.16,3,9.24.79,2.42,1.58,4.84,2.36,7.27.04.11.05.23.07.34Z"/><path class="cls-4" d="M15.43,17.42c0,.08,0,.15,0,.23-4.14,0-8.28,0-12.41,0,.06-.1.08-.23.24-.23.18.02.26-.08.3-.23.05-.2-.06-.31-.22-.4.03-.12.09-.25.07-.37-.03-.28.11-.31.32-.26.1,0,.21,0,.31,0,.25-.06.15-.23.09-.36-.07-.16-.16-.31.07-.42.09.23.25.45.24.72,0,.14.08.21.22.22.13,0,.19-.09.21-.19.05-.19.02-.36-.21-.43-.03-.14.09-.34-.16-.39-.03-.08-.05-.16-.08-.24,0-.16-.12-.16-.24-.16-.04-.18.32-.37,0-.55.18-.08.13-.39.39-.39.09.09.18.11.22-.03.05-.18-.08-.21-.22-.21-.06-.13-.15-.26,0-.39.1,0,.22,0,.23-.14.01-.12.01-.24-.15-.25.08-.18-.19-.51.24-.55.1.14.21-.03.31,0,.1,0,.21,0,.31,0,.08,0,.16,0,.24,0,.06-.01.13-.02.14-.1.01-.11-.06-.13-.14-.14-.08,0-.16,0-.24,0-.14-.06-.21-.24-.39-.24,0-.09.01-.18-.08-.24-.01-.11.02-.22.08-.31.05,0,.1,0,.16,0,.03.03.05.05.08.08,0,.17-.01.34.24.31.03.05.09.09.11.02.03-.09-.05-.09-.11-.1.09-.17.19-.34.2-.65-.05-.06-.04,0-.04.06,0,.08.05.02.07.02.06-.01.08-.06.07-.11,0-.03-.04-.05-.1.03-.15.1-.2-.14-.36.02-.11,0-.23,0-.23-.16.11,0,.19-.05.23-.16.05,0,.1,0,.16,0,.14-.03.39.08.37-.14-.02-.21.31-.47-.06-.64-.09-.18-.24-.33-.24-.55.1,0,.15-.06.16-.16-.06-.32.12-.62.08-.94,0,0,0,0,0,0,.17.06.25-.15.4-.15-.02.06-.04.12-.05.18-.02.13-.24.21-.12.37.11.14.29.07.44.08.08,0,.15,0,.21-.08h.08c.22.15.43.1.51-.13.08-.23.14-.52-.19-.66v-.55c.2-.03.27-.21.22-.35-.12-.37-.32-.72-.01-1.09-.28-.25-.14-.63-.29-.92.11-.17.08-.37.07-.56,0,0,0,0,0,0,.03,0,.06,0,.09,0-.02.17.22.13.23.28.01.17.04.34.27.24.25-.11.09-.27,0-.41-.02-.03-.02-.07-.02-.11.22.06.45.15.39-.24.06,0,.12-.02.16-.08.22-.21.22-.5,0-.71,0-.05,0-.1,0-.16,0-.03,0-.05,0-.08.38-.05.35-.42.36-.63.02-.27-.25-.42-.52-.47,0-.03,0-.05,0-.08.07-.03.13-.08.16-.16.28-.08.1-.31.16-.47.13-.07.03-.25.16-.31.14-.02.3.04.44-.06-.07-.12-.18-.08-.25-.12-.1-.07-.2-.13-.18-.27.02-.14.15-.17.25-.22.17-.07.18.07.24.17.08.12.14.3.34.27.32-.04.09.15.1.24-.02.1-.04.2-.06.3-.07.36.11.82.38.96h0c.02.29.02.55-.29.74-.18.11-.13.35-.05.54.09.19.25.14.41.1.06-.02.13-.03.19-.02q.68.07.68-.57c.05,0,.11,0,.16,0,0,0,0,0,0,0,0,.16,0,.31,0,.47.01.11-.04.23.08.31,0,.05,0,.1,0,.16-.1.21-.23.43.16.47.08.26.07.51-.03.77-.05.15-.16.33.11.41-.03.14.09.34-.16.39-.24.16-.24.31,0,.47,0,.15.09.23.24.24,0,.16.12.16.24.16,0,.05,0,.11-.01.15-.06.13-.07.27.06.35.16.11.22-.05.3-.14.07-.08.17-.12.28-.13.09.23.1.47.09.71,0,.11.05.19.16.24,0,.06-.02.12-.08.16-.21-.15-.31-.09-.31.16-.01.33.03.67-.07,1-.04.12.03.27.13.3.46.13.21.42.17.66-.03.03-.05.05-.08.08-.08,0-.15.04-.15.14,0,.11.04.17.15.18v.08s.03.11.06.12c.08.02.08-.06.1-.12h.31c-.02.25.15.24.31.24.13.14.26-.05.39,0,.05,0,.11,0,.16,0,0,0,0,0,0,0,0,.18,0,.37,0,.55-.23.03-.23.17-.22.36.02.36-.16.73.13,1.06.02.02-.05.14-.08.2-.08.12-.08.25.01.36.09.11.09.24.09.37-.14.13.05.26,0,.39-.2.05-.24.17-.18.35.03.1.05.21.2.19.17-.02.19-.16.22-.28.06-.27.27-.51.23-.81.11,0,.26-.02.19.18-.05.14-.1.29-.14.44-.04.15-.15.33.11.4.1,0,.21,0,.31,0,.18.02.13-.25.3-.24,0,.02,0,.05.01.08,0,0-.01.02-.01.02-.09.05-.06.09,0,.14-.01.19.04.37.08.55-.04.07-.06.14-.11.2-.26.35-.3.65.11.94.09.07.29.36-.03.5-.1.05-.14.1-.12.21.03.12.16.15.21.1.2-.17.37,0,.56,0ZM10.88,4.97c-.07,0-.07.06-.07.11,0,.05,0,.11.07.11.07,0,.07-.06.07-.11,0-.05,0-.1-.07-.11Z"/><path class="cls-4" d="M4.2,15.38c-.22.11-.14.26-.07.42.06.14.16.3-.09.36.02-.18-.07-.31-.21-.41-.12.12-.11.27-.11.41-.22-.05-.36-.02-.32.26.01.12-.05.24-.07.37-.32.17-.04.42-.08.63-.15,0-.18.13-.24.23-.03.02-.05.04-.08.06-.02,0-.04,0-.06.02.09-.64.36-1.23.55-1.83.79-2.48,1.61-4.95,2.41-7.42.02-.06.05-.12.08-.17.04.32-.14.62-.08.94-.1,0-.15.05-.16.16,0,.22.14.37.24.55-.09.27-.34.47-.31.79-.05,0-.1,0-.16,0-.02-.04-.06-.12-.07-.12-.13.04-.15.16-.16.27,0,.16.12.16.23.16.09.15.12.3-.08.39-.03-.03-.05-.05-.08-.08,0-.07.02-.18-.06-.19-.13-.01-.08.12-.1.19-.05.1-.09.2-.08.31-.17.21-.16.46-.16.71-.42.04-.16.37-.24.55-.09.06-.08.15-.08.24-.05.03-.05.05,0,.08,0,.03,0,.05,0,.08-.15.13-.06.26,0,.39,0,.08,0,.16,0,.24-.26,0-.21.31-.39.39-.29.33-.29.46,0,.55.11,0,.23,0,.24.16-.2.01-.24.15-.24.31Z"/><path class="cls-4" d="M10.96,3.12c-.05,0-.11,0-.16,0-.1-.13-.09-.38-.29-.37-.19.01.03.23-.08.32-.06.05-.08.13-.14.19-.05.06-.12.1-.21.06-.09-.04-.1-.14-.06-.2.2-.29.06-.7.34-.97.09-.08.14-.22.05-.35-.06-.09-.14-.11-.24-.08-.16.05-.16.18-.16.31,0,.12.04.27-.16.3h0c.01-.43-.07-.88.2-1.28.05-.07.07-.18-.02-.25-.06-.05-.15,0-.15.07,0,.3-.21.17-.35.2-.02-.09.22-.28-.1-.24-.2.03-.26-.15-.34-.27-.06-.1-.07-.24-.24-.17-.1.05-.23.08-.25.22-.02.14.08.21.18.27.07.05.18,0,.25.12-.14.11-.3.04-.44.06-.02-.07-.04-.19-.13-.09-.1.11-.17.26-.03.4-.05.16.13.39-.16.47-.02-.05-.02-.15-.1-.11-.1.05-.04.17-.06.26,0,.03,0,.05,0,.08,0,.18,0,.37,0,.55-.31-.04-.24.35-.46.4l-.03-.02c.26-.83.52-1.66.8-2.48.13-.38.46-.53.83-.54.4-.01.73.17.87.55.31.84.6,1.69.82,2.56ZM10.57,2.55s.05-.07.06-.1c0-.05-.03-.1-.09-.07-.02,0-.04.06-.04.09,0,.03.04.05.07.09Z"/><path class="cls-4" d="M14.72,14.67c-.17-.02-.12.26-.3.24.03-.13.06-.25.07-.38,0-.08.03-.2-.08-.23-.13-.03-.12.08-.15.17-.04.15-.1.29-.15.43-.26-.07-.15-.25-.11-.4.04-.15.09-.29.14-.44.07-.2-.07-.17-.19-.18-.6-.4-.19-.86-.03-1.34-.4.12-.49.02-.28-.32.12-.19.12-.39-.08-.55,0-.18,0-.37,0-.55.38.9.62,1.84.93,2.76.09.26.22.5.23.78Z"/><path class="cls-4" d="M11.27,5.71c-.26-.08-.16-.26-.11-.41.09-.26.11-.51.03-.77,0-.18,0-.35-.16-.47,0-.05,0-.1,0-.16-.01-.11.04-.23-.08-.31,0-.16,0-.31,0-.47.47,1.27.88,2.56,1.25,3.85h0c-.49-.02-.21-.47-.37-.68-.05-.06.06-.25-.14-.19-.13.04-.08.14-.03.22.14.23.07.44-.07.64-.11,0-.23,0-.24-.16.16-.34,0-.75.3-1.07.08-.09.02-.3-.15-.4-.13.09-.16.24-.23.36Z"/><path class="cls-4" d="M7.18,4.45c0,.19.03.38-.07.56-.24.5-.08,1.01-.08,1.52,0,.16,0,.34-.16.41-.21.09-.09-.25-.28-.24-.14.21-.17.42.04.62.12.11.1.26.08.4-.02.1-.09.11-.18.09-.44-.11-.27.15-.2.34-.15,0-.22.21-.4.15.04-.31.13-.61.33-.86,0,0,.03-.02.03-.02,0-.02-.02-.04-.03-.05.07-.58.33-1.11.5-1.67.13-.42.22-.85.43-1.24Z"/><path class="cls-4" d="M12.29,7.91c0-.24,0-.48-.09-.71,0-.07,0-.15,0-.22h0c.49,1.36.95,2.74,1.34,4.15-.05,0-.11,0-.16,0-.04-.16-.13-.31-.17-.47-.08-.29-.39-.48-.35-.82.02-.14.06-.28.03-.42-.03-.14-.08-.36-.29-.12-.14.15-.2.03-.23-.09-.09-.3-.02-.61,0-.91.06-.03.08-.09.08-.16,0-.11,0-.23-.16-.24Z"/><path class="cls-4" d="M7.26,4.46s-.06,0-.09,0c.07-.5.31-.95.46-1.42,0,0,.03.02.03.02.17.39.24.81.46,1.17.05.39-.18.3-.39.24h0c0-.09.01-.18-.08-.24-.05-.17.11-.34-.01-.6-.07.21-.11.33-.14.46-.04.15-.08.3-.24.38Z"/><path class="cls-4" d="M6.25,7.36s.02.04.03.05c0,0-.02.01-.03.02-.01-.03-.01-.05,0-.08Z"/><path class="cls-3" d="M2.94,17.71s.05-.04.08-.06c4.14,0,8.28,0,12.41,0,.12.02.24.06.32.16.42,1.31.84,2.62,1.27,3.93.44,1.35.9,2.69,1.34,4.04.58,1.77,1.13,3.55,1.71,5.32.65,2.02,1.31,4.04,1.97,6.06.46,1.41.94,2.81,1.4,4.22.42,1.27.82,2.55,1.22,3.82,0,.03-.03.07-.04.11-.34-.08-.45-.39-.62-.62-.89-1.19-1.83-2.34-2.74-3.51-.86-1.11-1.72-2.22-2.6-3.32-1.12-1.41-2.18-2.85-3.28-4.27-1.09-1.4-2.2-2.78-3.29-4.17-.95-1.22-1.88-2.46-2.83-3.67-.86-1.09-1.75-2.16-2.6-3.26-1.08-1.38-2.15-2.78-3.22-4.18-.16-.21-.33-.41-.49-.61Z"/><path class="cls-3" d="M33.9,17.81c.1-.11.21-.16.37-.16,4.14,0,8.29,0,12.43.01-.34.57-.77,1.08-1.17,1.6-.63.81-1.27,1.61-1.9,2.42-1.01,1.28-2.01,2.55-3.01,3.84-.79,1.01-1.56,2.04-2.35,3.05-1.05,1.35-2.1,2.68-3.16,4.03-.88,1.12-1.76,2.23-2.63,3.34-1.4,1.8-2.8,3.61-4.2,5.41-.97,1.24-1.94,2.48-2.91,3.72-.09.11-.18.23-.34.25.33-1.3.8-2.56,1.2-3.84.34-1.09.7-2.18,1.06-3.27.34-1.03.68-2.05,1.01-3.08.35-1.1.69-2.21,1.05-3.31.32-.98.65-1.95.97-2.93.39-1.21.77-2.43,1.16-3.64.33-1.02.67-2.03,1-3.05.37-1.13.73-2.25,1.1-3.38.11-.33.25-.66.31-1.01Z"/><path class="cls-2" d="M25.02,45.39c0,.06,0,.12-.07.15,0-.06,0-.12.07-.15Z"/><path class="cls-4" d="M15.43,17.42c-.18-.01-.36-.18-.56,0-.05.04-.19.02-.21-.1-.02-.1.02-.16.12-.21.32-.14.12-.43.03-.5-.42-.29-.38-.59-.11-.94.04-.06.07-.13.11-.2.03.04.09.08.09.12-.05.68.36,1.23.54,1.85Z"/><path class="cls-4" d="M14.72,14.9c-.06-.04-.09-.09,0-.14,0,.05,0,.09,0,.14Z"/><path class="cls-4" d="M7.03,6.53c0-.51-.16-1.03.08-1.52.15.29.26.69.54.94-.31.37-.35.7-.24,1.07.04.14-.02.31-.22.35-.28.18-.17.43-.1.65.02.06.08-.05.1-.1.33.14.27.43.19.66-.08.23-.29.28-.51.13.16-.08.19-.21.12-.36-.03-.06-.09-.11-.16-.07-.16.09-.13.23-.09.38,0,.02.03.04.05.06-.05.07-.13.08-.21.08-.15-.01-.33.06-.44-.08-.12-.16.1-.24.12-.37.01-.06.03-.12.05-.18-.06-.19-.23-.44.2-.34.09.02.16,0,.18-.09.02-.14.04-.29-.08-.4-.21-.2-.18-.41-.04-.62"/><path class="cls-4" d="M12.37,8.3c-.01.3-.08.61,0,.91.04.12.09.24.23.09.21-.24.26-.02.29.12.02.13-.01.28-.03.42-.04.34.27.53.35.82.04.15.13.3.17.47-.13-.05-.26.14-.39,0-.03-.14.08-.34-.08-.43-.1-.05-.22.05-.23.19h-.31c-.03-.16.06-.33-.08-.47.04-.24.29-.53-.17-.66-.1-.03-.16-.19-.13-.3.1-.33.06-.67.07-1,0-.25.11-.31.31-.16Z"/><path class="cls-4" d="M9.86,2.33c.2-.03.15-.18.16-.3,0-.13,0-.27.16-.31.1-.03.17,0,.24.08.1.14.04.27-.05.35-.28.27-.14.67-.34.97-.04.06-.03.16.06.2.08.04.15,0,.21-.06.05-.06.08-.14.14-.19.12-.1-.1-.31.08-.32.2-.01.19.24.29.37q0,.65-.68.57c-.06,0-.13,0-.19.02-.15.04-.32.09-.41-.1-.09-.19-.14-.42.05-.54.31-.19.3-.45.29-.74Z"/><path class="cls-4" d="M13.55,11.68c.21.16.2.36.08.55-.21.34-.12.43.28.32-.16.48-.57.93.03,1.34.03.3-.17.54-.23.81-.03.12-.06.26-.22.28-.14.02-.16-.1-.2-.19-.06-.18-.01-.3.18-.35.09.08.15.05.15-.05,0-.13.07-.3-.15-.34,0-.13,0-.26-.09-.37-.09-.11-.09-.23-.01-.36.04-.06.11-.18.08-.2-.29-.33-.11-.71-.13-1.06-.01-.19-.02-.34.22-.36Z"/><path class="cls-4" d="M8.13,4.22c-.22-.37-.29-.79-.46-1.17.23-.05.16-.44.46-.4h0c.07.21-.16.48.16.63,0,.05,0,.1,0,.16v.71c-.03.06-.09.08-.16.08Z"/><path class="cls-4" d="M9.54,1.08c.14-.03.36.1.35-.2,0-.06.09-.12.15-.07.08.06.07.17.02.25-.27.39-.19.84-.2,1.28-.26-.14-.44-.59-.38-.96.02-.1.04-.2.06-.3Z"/><path class="cls-4" d="M12.2,6.98c0,.07,0,.15,0,.22-.11,0-.2.05-.28.13-.09.09-.14.25-.3.14-.12-.08-.11-.22-.06-.35.02-.05,0-.1.01-.15.15-.2.21-.41.07-.64-.05-.08-.1-.18.03-.22.2-.06.09.13.14.19.16.21-.11.66.37.69Z"/><path class="cls-4" d="M11.27,5.71c.07-.12.1-.27.23-.36.16.1.23.31.15.4-.3.31-.14.73-.3,1.07-.15,0-.23-.09-.24-.24v-.47c.25-.05.12-.25.16-.39Z"/><path class="cls-4" d="M4.2,15.38c0-.17.03-.3.24-.31.03.08.05.16.08.24,0,.14-.03.3.01.43.06.17.12.07.14-.03.23.06.26.23.21.43-.03.1-.08.2-.21.19-.14,0-.23-.08-.22-.22,0-.27-.15-.48-.24-.72Z"/><path class="cls-4" d="M8.13,2.65c0-.18,0-.37,0-.55.27.05.54.2.52.47-.02.21.02.58-.36.63-.03-.19.09-.42-.16-.55h0Z"/><path class="cls-4" d="M7.16,4.49c.16-.08.3-.27.34-.42.03-.13.08-.25.14-.46.13.27-.04.44.01.6-.13.13.15.18.32.21v.21s-.23-.1-.22-.07c.08.14.24.3,0,.41-.22.1-.49.27-.5.1,0-.14-.11-.42-.1-.58Z"/><path class="cls-4" d="M5.31,10.82c-.02-.31.53-.98.62-1.25.37.17.46,1.19.48,1.41.02.22-.97-.19-1.1-.16Z"/><path class="cls-4" d="M5.31,11.41c.2-.1.23-.2.14-.36.15-.16.44-.15.55-.15.03.21-.11.72-.2.89,0,.03-.2.06-.2.09-.25.02-.3-.31-.29-.48Z"/><path class="cls-4" d="M3.26,17.42c.04-.21-.24-.46.08-.63.16.09.27.2.22.4-.04.15-.12.25-.3.23Z"/><path class="cls-4" d="M4.91,12.39c0-.25-.02-.5.16-.71.09.06.08.15.08.24.03.16.11.31.08.47-.1-.03-.21.14-.31,0Z"/><path class="cls-4" d="M14.1,14.9c.05-.14.11-.29.15-.43.03-.08.02-.2.15-.17.12.03.09.14.08.23-.01.13-.05.25-.07.38-.1,0-.21,0-.31,0Z"/><path class="cls-4" d="M4.2,14.9c-.29-.09-.29-.22,0-.55.32.18-.04.37,0,.55Z"/><path class="cls-4" d="M12.69,10.9c.02-.14.13-.24.23-.19.16.09.05.28.08.43-.17,0-.34.01-.31-.24Z"/><path class="cls-4" d="M6.79,8.7s-.04-.04-.05-.06c-.04-.14-.07-.29.09-.38.06-.04.13.01.16.07.07.15.04.28-.12.36h-.08Z"/><path class="cls-4" d="M5.22,12.39c.03-.17-.05-.31-.08-.47.18,0,.25.18.39.24v.24c-.1,0-.21,0-.31,0Z"/><path class="cls-4" d="M7.19,7.91c-.02.05-.08.16-.1.1-.07-.22-.19-.47.1-.65v.55Z"/><path class="cls-4" d="M8.29,4.14v-.71c.22.21.22.5,0,.71Z"/><path class="cls-4" d="M3.73,16.16c0-.14-.01-.28.11-.41.14.1.22.23.21.41-.1,0-.21,0-.31,0Z"/><path class="cls-4" d="M11.04,4.06c.15.12.16.29.16.47-.39-.05-.25-.26-.16-.47Z"/><path class="cls-4" d="M4.59,13.18c0-.09-.01-.18.08-.24.17.02.16.13.15.25-.01.14-.13.13-.23.14,0-.03,0-.05,0-.08,0-.03,0-.05,0-.08Z"/><path class="cls-4" d="M8.13,2.65c.25.13.13.36.16.55,0,.03,0,.05,0,.08-.31-.14-.09-.42-.16-.63Z"/><path class="cls-4" d="M4.67,15.69c-.03.11-.08.21-.14.03-.04-.13-.01-.28-.01-.43.25.05.12.25.16.39Z"/><path class="cls-4" d="M13.47,14.04c.22.04.15.21.15.34,0,.1-.06.14-.15.05.05-.13-.14-.26,0-.39Z"/><path class="cls-4" d="M12.29,10.43c.14.14.05.31.08.47h-.16v-.39s.05-.05.08-.08Z"/><path class="cls-4" d="M4.59,13.96c0-.08,0-.16,0-.24.14,0,.27.03.22.21-.04.14-.13.12-.22.03Z"/><path class="cls-4" d="M11.11,6.11v.47c-.24-.16-.24-.31,0-.47Z"/><path class="cls-4" d="M8.44,1.39c-.15-.14-.08-.29.03-.4.09-.1.11.02.13.09-.13.07-.03.25-.16.31Z"/><path class="cls-4" d="M5.54,12.39c0-.08-.38-.49-.38-.56.08,0,.79.3.87.3,0,.08-.13.31-.13.39-.08,0-.28-.13-.35-.13Z"/><path class="cls-4" d="M5.22,10.9c.01-.12.03-.23.16-.27,0,0,.05.08.07.12-.04.1-.12.16-.23.16Z"/><path class="cls-4" d="M12.21,10.5v.31c-.11,0-.16-.07-.15-.18,0-.1.07-.13.15-.14Z"/><path class="cls-4" d="M10.88,4.97c.07,0,.07.06.07.11,0,.05,0,.11-.07.11-.07,0-.07-.06-.07-.11,0-.05,0-.1.07-.11Z"/><path class="cls-4" d="M8.13,2.02c.01-.09-.05-.21.06-.26.08-.04.08.05.1.11-.03.07-.08.13-.16.16Z"/><path class="cls-4" d="M5.77,12.39v-.24c.08.01.16.03.14.14-.01.08-.08.09-.14.1Z"/><path class="cls-4" d="M5.14,11.37c.02-.07-.04-.2.1-.19.08,0,.05.12.06.19-.05,0-.1,0-.16,0Z"/><path class="cls-4" d="M5.85,10.93s.05.04.06.07c.01.05-.01.1-.07.11-.02,0-.07.07-.07-.02,0-.06,0-.13.08-.17Z"/><path class="cls-4" d="M12.29,7.91c.16,0,.16.12.16.24-.1-.04-.16-.12-.16-.24Z"/><path class="cls-4" d="M12.21,10.9h.16c-.01.06-.01.14-.1.12-.03,0-.04-.08-.06-.12Z"/><path class="cls-4" d="M5.61,11.76v-.08c.06.01.15.01.11.1-.03.06-.08.02-.11-.02Z"/><path class="cls-4" d="M5.69,9.4c0-.1.05-.15.16-.16,0,.1-.05.15-.16.16Z"/><path class="cls-4" d="M10.96,3.59c.11.08.07.21.08.31-.11-.08-.07-.21-.08-.31Z"/><path class="cls-4" d="M4.59,13.18s0,.05,0,.08c-.05-.03-.05-.05,0-.08Z"/><path class="cls-4" d="M10.57,2.55s-.07-.06-.07-.09c0-.03.01-.08.04-.09.06-.02.09.02.09.07,0,.03-.03.06-.06.1Z"/><path class="cls-4" d="M7.74,4.46c-.17-.03-.21-.11-.08-.24.09.06.08.15.08.24Z"/></g></svg>