<?xml version="1.0" encoding="UTF-8"?><svg id="Calque_1" xmlns="http://www.w3.org/2000/svg" viewBox="0 0 39.92 45.65"><defs><style>.cls-1{fill:#fb490c;}.cls-2{fill:#dadada;}</style></defs><rect class="cls-2" x="5.4" y="5.07" width="29.8" height="35.01"/><path class="cls-1" d="M1.04,0h37.83c.71.33,1.11.83,1.05,1.67-.23,2.81-.46,5.63-.67,8.44-.34,4.39-.67,8.77-1.02,13.16-.41,5.29-.83,10.58-1.24,15.87-.07.93-.38,1.34-1.26,1.62-5.05,1.6-10.09,3.2-15.14,4.8-.43.14-.84.14-1.27,0-5.06-1.61-10.12-3.22-15.18-4.81-.76-.24-1.15-.73-1.21-1.52-.12-1.57-.24-3.14-.36-4.71-.28-3.61-.55-7.23-.84-10.84-.28-3.61-.58-7.23-.86-10.84C.58,9.21.33,5.59.02,1.98-.07,1.05.16.38,1.04,0ZM19.96,8.36c-3.94,0-7.88,0-11.82,0-.22,0-.45.01-.67,0-.23-.01-.27.09-.25.29.13,1.51.24,3.02.36,4.53.26,3.3.53,6.61.76,9.91.03.44.15.55.59.55,5.66-.02,11.33,0,16.99-.02.36,0,.48.07.45.46-.15,1.79-.27,3.59-.39,5.38-.02.34-.15.48-.48.56-1.69.44-3.38.91-5.07,1.36-.2.05-.39.08-.61.02-1.76-.49-3.52-.96-5.29-1.42-.25-.07-.33-.17-.33-.42.01-1.07,0-2.14.01-3.21,0-.31-.08-.4-.39-.4-1.61.02-3.21.02-4.82,0-.37,0-.44.11-.41.45.2,2.41.38,4.83.56,7.25.02.24.11.36.35.43,3.4,1.07,6.79,2.14,10.18,3.22.18.06.34.05.51,0,3.38-1.08,6.76-2.15,10.14-3.21.25-.08.36-.19.38-.45.11-1.59.24-3.17.36-4.76.25-3.23.5-6.46.75-9.69.04-.54.05-.54-.49-.54-5.78,0-11.57,0-17.35,0-.33,0-.45-.08-.48-.43-.13-1.46-.3-2.93-.46-4.39-.06-.56-.07-.56.5-.56,6.1,0,12.19,0,18.29,0,.39,0,.49-.11.51-.49.07-1.32.17-2.64.3-3.96.04-.4-.04-.5-.44-.49-4.09.02-8.18,0-12.27,0Z"/></svg>