<?xml version="1.0" encoding="UTF-8"?><svg id="Calque_1" xmlns="http://www.w3.org/2000/svg" viewBox="0 0 44.62 44.62"><defs><style>.cls-1{fill:#222;}.cls-2{fill:#fede00;}</style></defs><path class="cls-2" d="M.01,0c14.74,0,29.48,0,44.22,0,.33,0,.4.07.4.4,0,14.74,0,29.48,0,44.22-14.69,0-29.39,0-44.08.01-.44,0-.54-.1-.54-.54C.01,29.4.01,14.7.01,0ZM34.12,41.13c.86,0,1.64-.07,2.4-.27,1.97-.5,3.57-1.5,4.27-3.52.82-2.35.44-5.37-2.37-7.18-1.35-.87-2.83-1.45-4.29-2.1-.56-.25-1.11-.51-1.57-.92-.59-.53-.73-1.22-.53-1.95.19-.73.74-1.13,1.47-1.24,1.32-.21,2.29.31,2.96,1.44.11.18.18.34.45.16.92-.61,1.85-1.2,2.78-1.79.2-.12.19-.22.08-.4-.92-1.53-2.21-2.56-3.98-2.93-1.13-.24-2.28-.27-3.42-.02-2.18.48-3.79,1.67-4.35,3.89-.57,2.28-.1,4.35,1.73,5.98,1.05.94,2.34,1.5,3.61,2.05.92.4,1.86.75,2.68,1.33.66.46.98,1.1.88,1.91-.1.78-.6,1.27-1.3,1.55-.91.37-1.84.36-2.78.12-1.2-.3-2.03-1.08-2.68-2.08-.14-.22-.24-.29-.5-.14-.94.57-1.9,1.12-2.86,1.66-.22.12-.23.22-.11.43.33.57.71,1.1,1.16,1.57,1.73,1.78,3.91,2.41,6.24,2.45ZM24.31,28.09c0-2.4,0-4.79,0-7.19,0-.36-.11-.43-.44-.42-1.1.02-2.21.03-3.31,0-.41-.01-.46.13-.46.49.01,4.5,0,9,0,13.5,0,.39-.02.79-.08,1.17-.11.71-.39,1.31-1.12,1.58-1.12.43-2.32.09-3.03-.86-.21-.28-.39-.57-.57-.88-.11-.18-.18-.25-.39-.12-.97.6-1.95,1.2-2.94,1.78-.2.12-.21.22-.11.41.63,1.18,1.49,2.14,2.69,2.77,1.52.8,3.16.95,4.83.71,2.03-.3,3.59-1.28,4.4-3.25.4-.97.52-1.99.52-3.02,0-2.22,0-4.44,0-6.66Z"/><path class="cls-1" d="M34.12,41.13c-2.34-.04-4.51-.68-6.24-2.45-.46-.47-.83-1-1.16-1.57-.12-.21-.11-.31.11-.43.96-.54,1.92-1.09,2.86-1.66.26-.16.35-.08.5.14.65,1.01,1.48,1.79,2.68,2.08.94.23,1.87.25,2.78-.12.7-.29,1.2-.77,1.3-1.55.1-.81-.22-1.45-.88-1.91-.83-.58-1.77-.93-2.68-1.33-1.28-.55-2.56-1.11-3.61-2.05-1.82-1.63-2.3-3.7-1.73-5.98.56-2.22,2.17-3.42,4.35-3.89,1.13-.25,2.28-.21,3.42.02,1.77.37,3.05,1.41,3.98,2.93.11.19.12.28-.08.4-.93.58-1.87,1.17-2.78,1.79-.27.18-.34.02-.45-.16-.67-1.12-1.64-1.65-2.96-1.44-.73.12-1.28.51-1.47,1.24-.19.73-.06,1.42.53,1.95.46.41,1.01.67,1.57.92,1.45.65,2.94,1.23,4.29,2.1,2.8,1.81,3.18,4.83,2.37,7.18-.7,2.01-2.3,3.01-4.27,3.52-.76.19-1.54.26-2.4.27Z"/><path class="cls-1" d="M24.31,28.09c0,2.22,0,4.44,0,6.66,0,1.04-.13,2.06-.52,3.02-.81,1.97-2.37,2.95-4.4,3.25-1.67.24-3.3.1-4.83-.71-1.19-.63-2.06-1.59-2.69-2.77-.1-.19-.09-.29.11-.41.99-.58,1.97-1.17,2.94-1.78.21-.13.29-.07.39.12.17.3.36.6.57.88.71.95,1.91,1.29,3.03.86.73-.28,1.01-.88,1.12-1.58.06-.39.08-.78.08-1.17,0-4.5,0-9,0-13.5,0-.36.05-.5.46-.49,1.1.03,2.21.02,3.31,0,.33,0,.44.07.44.42-.02,2.4,0,4.79,0,7.19Z"/></svg>