<?xml version="1.0" encoding="UTF-8"?><svg id="Calque_1" xmlns="http://www.w3.org/2000/svg" viewBox="0 0 44.43 44.43"><defs><style>.cls-1{fill:#fff;}</style></defs><circle class="cls-1" cx="22.21" cy="22.21" r="21.55"/><path class="cls-1" d="M22.21,44.43C9.97,44.43,0,34.46,0,22.21S9.97,0,22.21,0s22.21,9.97,22.21,22.21-9.97,22.21-22.21,22.21ZM22.21,1.33C10.7,1.33,1.33,10.7,1.33,22.21s9.37,20.88,20.88,20.88,20.88-9.37,20.88-20.88S33.73,1.33,22.21,1.33Z"/><g id="g6PUUr.tif"><path d="M20.91.67c.44,0,.87,0,1.31,0,.14,0,.29.02.43.02.92.01,1.83.04,2.74.19,1.63.26,3.22.66,4.76,1.28,2.95,1.17,5.53,2.91,7.72,5.21,2.6,2.74,4.38,5.94,5.31,9.61.3,1.18.5,2.37.59,3.58.01.15.02.29.03.44v2.53s-.01.06-.01.09c-.05,1.33-.28,2.63-.6,3.92-.39,1.58-.97,3.1-1.71,4.55-1.05,2.05-2.4,3.88-4.02,5.5-.94.94-1.96,1.78-3.05,2.53-.16.11-.31.21-.47.32-.04-.05-.07-.1-.09-.14-1.26-1.91-2.52-3.82-3.79-5.73-1.53-2.31-3.05-4.62-4.58-6.93-1.64-2.49-3.27-4.97-4.92-7.46-1.23-1.85-2.46-3.7-3.69-5.55-.15-.23-.35-.35-.62-.36-.39-.01-.77,0-1.16-.02-.37-.01-.66.13-.87.44-.03.05-.06.11-.06.17,0,.56,0,1.12,0,1.67,0,1.39,0,2.78,0,4.17,0,.92,0,1.85,0,2.77,0,2.71,0,5.41,0,8.12,0,.04,0,.08.01.11.09.22.22.4.43.51.05.03.11.07.17.07.42,0,.84,0,1.26,0,.41,0,.73-.36.73-.71,0-.86.03-1.72.03-2.58,0-1.58.01-3.15.02-4.73,0-.66,0-1.33,0-1.99,0-.97.01-1.94.02-2.91,0-.09,0-.18,0-.27.04.02.07.04.08.07,2.11,3.11,4.22,6.22,6.33,9.33,1.18,1.74,2.34,3.49,3.6,5.17,1.84,2.45,3.66,4.91,5.49,7.37.19.25.19.25-.09.4-1.79.94-3.68,1.61-5.67,2-.84.17-1.68.31-2.53.37-.16.01-.33.02-.49.03h-2.61s-.06-.01-.09-.01c-.22-.01-.45-.01-.67-.04-1.03-.11-2.05-.28-3.06-.53-2.48-.6-4.77-1.62-6.89-3.04-2.28-1.53-4.2-3.42-5.76-5.67-1.63-2.35-2.75-4.92-3.35-7.72-.2-.94-.35-1.88-.42-2.84-.01-.17-.02-.33-.03-.5,0-.81,0-1.63,0-2.44,0-.02.01-.04.01-.06.04-.45.06-.9.11-1.34.22-1.78.64-3.5,1.29-5.17,1.06-2.73,2.62-5.14,4.65-7.24,1.76-1.81,3.78-3.28,6.05-4.39,2.46-1.2,5.05-1.91,7.77-2.11.12,0,.25-.03.37-.04ZM30.05,29.5s.02,0,.03,0c0-.06,0-.12,0-.17,0-.75,0-1.51,0-2.26,0-1.51,0-3.01,0-4.52,0-2.04,0-4.07,0-6.11,0-.68-.02-1.35-.02-2.03,0-.38-.38-.73-.68-.74-.4,0-.81,0-1.21,0-.17,0-.32.06-.45.17-.25.2-.31.47-.31.77,0,1.14-.02,2.29-.02,3.43,0,2.44,0,4.87,0,7.31,0,.06.02.14.06.19.78,1.2,1.56,2.4,2.35,3.6.08.12.16.25.24.37Z"/></g></svg>