<?xml version="1.0" encoding="UTF-8"?><svg id="Calque_1" xmlns="http://www.w3.org/2000/svg" viewBox="0 0 40.88 46.18"><defs><style>.cls-1{fill:#fafdfd;}.cls-2{fill:#01d9d9;}.cls-3{fill:#02cade;}.cls-4{fill:#02e4d4;}.cls-5{fill:#03cedd;}.cls-6{fill:#01ded6;}.cls-7{fill:#03d2db;}.cls-8{fill:#02bde3;}.cls-9{fill:#02b3e7;}.cls-10{fill:#02c8df;}.cls-11{fill:#02c6e0;}.cls-12{fill:#fdfefe;}.cls-13{fill:#00c5df;}.cls-14{fill:#02d2db;}</style></defs><path class="cls-4" d="M4.02,8.2c.99-.51,2.07-.67,3.16-.81,1.47-.18,2.94-.05,4.4.11.3.03.41-.05.53-.3.89-1.87,1.94-3.63,3.45-5.07,1.09-1.03,2.34-1.77,3.84-2.05.06-.01.12-.03.14-.09h1.71c.73.23,1.49.39,2.17.77,1.53.83,2.67,2.06,3.65,3.46.66.95,1.21,1.96,1.7,3.01.11.24.23.31.51.27,2.02-.25,4.03-.32,6.03.16.46.11.93.22,1.35.46-.06.27-.28.17-.44.17-3.22,0-6.45,0-9.67,0-.16,0-.34.06-.45-.12.16-.05.31-.11.47-.15.22-.04.22-.15.14-.32-.87-1.73-1.89-3.34-3.44-4.56-1.78-1.4-3.89-1.4-5.67,0-1.46,1.15-2.46,2.65-3.3,4.28-.26.51-.26.51.27.71-.07.27-.29.16-.45.16-3.2,0-6.4,0-9.59,0-.18,0-.36,0-.52-.1Z"/><path class="cls-8" d="M40.73,30.66c.51,2.92-.63,5.59-3.19,6.99-2.12,1.16-4.43,1.31-6.78,1.17-.46-.03-.93-.06-1.39-.14-.34-.06-.53.03-.64.36-.05.17-.17.31-.26.47-.74-.19-1.49-.05-2.23-.09.14-.28.26-.57.43-.84.18-.3.09-.39-.22-.47-1.95-.48-3.85-1.13-5.68-1.95-.25-.11-.45-.08-.68.02-1.66.73-3.37,1.33-5.12,1.79q-.92.24-.47,1.12c.05.11.1.22.15.32-.25,0-.5-.02-.75,0-.5.03-1-.1-1.49.1-.04-.06-.09-.12-.12-.18-.39-.72-.39-.71-1.2-.61-1.97.24-3.93.24-5.84-.3-2.72-.77-4.6-2.39-5.12-5.29-.1-.57-.17-1.16-.05-1.74.68,0,1.37,0,2.05,0-.04.53-.03,1.05.07,1.57.33,1.73,1.48,2.73,3.06,3.29,1.75.62,3.56.63,5.39.45.52-.05.52-.05.36-.56-.48-1.53-.93-3.07-1.18-4.66.68-.16,1.37-.07,2.05-.09.33,1.48.7,2.94,1.18,4.38.13.39.26.53.68.39.64-.21,1.3-.35,1.95-.55.74-.23,1.47-.45,2.24-.82-.33-.18-.59-.32-.84-.47-1.5-.85-2.99-1.71-4.38-2.74.19-.2.44-.2.7-.21.89,0,1.78,0,2.67-.01,1.33.76,2.66,1.51,4.03,2.19.25.12.44.15.7.01.91-.49,1.84-.94,2.76-1.41.64,0,1.28,0,1.92.03.56.02,1.13-.09,1.68.1-1.28.97-2.73,1.67-4.17,2.53,1.45.57,2.84.98,4.24,1.35.39.11.5-.02.62-.36.41-1.24.73-2.5,1.06-3.75.1.18.28.14.43.14.53,0,1.06,0,1.59,0-.02.15-.03.3-.06.44-.27,1.21-.6,2.41-.99,3.59-.07.2-.17.4.19.44,1.99.21,3.96.22,5.85-.53,1.35-.53,2.35-1.43,2.73-2.89.22-.86.15-1.73.05-2.59.68-.11,1.36-.15,2.05,0Z"/><path class="cls-6" d="M36.24,8.29c.16,0,.38.1.44-.17,2.1.86,3.53,2.32,4.03,4.58-.71,0-1.41,0-2.12.01-.48-1.38-1.49-2.21-2.83-2.72-1.84-.7-3.74-.69-5.65-.51-.28.03-.39.11-.28.42.32.92.63,1.84.8,2.8-.69,0-1.38,0-2.07,0-.26-.81-.52-1.62-.77-2.43-.08-.27-.18-.42-.53-.3-.59.2-1.21.3-1.8.49-.83.27-1.69.49-2.5.89.37.21.69.39,1.01.57-.11.28-.35.24-.57.24-2,0-3.99,0-5.99,0-.21,0-.42,0-.57-.19.3-.25.71-.32,1-.65-1.45-.56-2.91-1.01-4.39-1.38-.24-.06-.28.05-.33.22-.21.67-.44,1.34-.66,2.01-.7,0-1.4,0-2.1-.01.22-.75.42-1.51.67-2.26.13-.37-.01-.42-.33-.45-1.18-.1-2.36-.15-3.54,0-1.9.25-3.61.82-4.64,2.61-.71-.04-1.42.1-2.12-.1.61-1.84,1.87-3.06,3.63-3.78.16.1.34.1.52.1,3.2,0,6.4,0,9.59,0,.16,0,.38.1.45-.16,1.56.32,3.06.85,4.51,1.51.87.39,1.6.47,2.49.05,1.44-.68,2.97-1.16,4.54-1.51"/><path class="cls-10" d="M11.87,31.38c-.68.02-1.37-.07-2.05.09-.2-.68-.24-1.39-.36-2.08-.03-.17-.08-.31-.21-.43-1.46-1.23-2.82-2.56-4.08-4-.15-.17-.22-.18-.36.02-1.32,1.96-2.43,4-2.69,6.4-.68,0-1.37,0-2.05,0,0-1.18.35-2.28.77-3.35.65-1.68,1.54-3.24,2.65-4.67.65,0,1.29.01,1.94,0,.33,0,.66.08.97-.09.89.92,1.7,1.91,2.68,2.75v-2.66c.67,0,1.33,0,2,0,.11,1.42.1,2.85.25,4.27.03.29.11.49.35.67,1.41,1.1,2.88,2.1,4.38,3.08-.89,0-1.78,0-2.67.01-.25,0-.5,0-.7.21-.3-.1-.48-.42-.81-.47,0-.01,0-.03,0-.03,0,0-.02,0-.03,0,.01.01.03.02.04.03,0,.09-.01.18-.02.27Z"/><path class="cls-9" d="M12.4,39.51c.49-.2.99-.06,1.49-.1.25-.02.5,0,.75,0,.81,1.36,1.71,2.63,2.97,3.63,1.78,1.39,3.88,1.39,5.66,0,1.27-.99,2.16-2.27,2.97-3.63.74.04,1.49-.1,2.23.09-.97,2-2.16,3.83-3.95,5.2-2.73,2.1-6.01,1.95-8.68-.41-1.5-1.33-2.61-2.96-3.45-4.78Z"/><path class="cls-14" d="M11.07,23.36c-.67,0-1.33,0-2,0-.06-1.06.03-2.12.03-3.24-.99.91-1.84,1.84-2.69,2.8-.11.13-.11.23-.02.35-.31.17-.65.09-.97.09-.65.01-1.29,0-1.94,0,.17-.22.07-.4-.07-.6-1.11-1.56-2.1-3.19-2.73-5.01-.04-.13-.08-.25-.12-.38.11-.17.28-.14.45-.14.55,0,1.11,0,1.66,0,.54,1.5,1.38,2.83,2.3,4.17,1.39-1.58,2.86-3.04,4.46-4.36.16.1.34.1.52.1.66,0,1.32,0,1.98,0,.17,0,.38-.05.41.22-.17.14-.34.31-.53.42-.36.21-.47.5-.51.91-.15,1.56-.16,3.12-.24,4.68Z"/><path class="cls-3" d="M40.73,30.66c-.68-.15-1.36-.11-2.05,0-.04-.13-.08-.26-.11-.39-.44-1.95-1.41-3.64-2.5-5.28-.14-.21-.21-.23-.41.01-.67.84-1.42,1.61-2.23,2.33-.1-.24-.32-.19-.51-.19-1.11,0-2.22,0-3.33,0,.13-1.53.15-3.06.18-4.6.68,0,1.36,0,2.04,0,.07,1.14-.03,2.28-.02,3.49.14-.13.23-.2.32-.28.78-.73,1.48-1.52,2.19-2.3.25-.28.32-.46.03-.71.03-.24.23-.19.38-.19.94,0,1.87,0,2.81,0-.42.5-.11.89.19,1.28,1.46,1.93,2.48,4.06,2.99,6.43.03.13.03.27.04.4Z"/><path class="cls-7" d="M31.82,22.55c-.68,0-1.36,0-2.04,0-.05-.97-.12-1.94-.13-2.91-.01-.94-.13-1.81-1.11-2.27.05-.11.16-.12.26-.14.71-.17,1.43-.05,2.15-.09.17,0,.36.07.51-.1,1.6,1.33,3.06,2.78,4.44,4.36.08-.11.13-.18.18-.25.98-1.38,1.74-2.87,2.32-4.46.7.02,1.4-.07,2.09.1-.25,1.09-.71,2.1-1.22,3.08-.43.82-.9,1.63-1.45,2.37-.09.12-.2.21-.31.32-.94,0-1.87,0-2.81,0-.15,0-.35-.05-.38.19-.81-.86-1.57-1.77-2.52-2.56v2.37Z"/><path class="cls-2" d="M2.68,17.23c-.55,0-1.11,0-1.66,0-.16,0-.34-.03-.45.14-.6-1.78-.79-3.57-.18-5.38.7.2,1.42.06,2.12.1-.67,1.74-.42,3.44.17,5.14Z"/><path class="cls-2" d="M40.49,16.78c-.69-.17-1.39-.07-2.09-.1.33-1.31.55-2.63.19-3.97.71,0,1.41,0,2.12-.01.31,1.38.2,2.74-.22,4.08Z"/><path class="cls-11" d="M33.44,27.34c-.52.59-1.13,1.07-1.71,1.57-.17.14-.26.29-.29.52-.15.93-.23,1.86-.51,2.77-.53,0-1.06,0-1.59,0-.16,0-.33.04-.43-.14-.02-.31.17-.61.1-.99-.65.43-1.25.83-1.85,1.23-.55-.18-1.12-.08-1.68-.1-.64-.02-1.28-.02-1.92-.03,1.12-.74,2.28-1.42,3.38-2.19.81-.57,1.58-1.18,2.38-1.76.18-.13.24-.28.25-.49,0-.19.03-.39.05-.58,1.11,0,2.22,0,3.33,0,.19,0,.4-.05.51.19Z"/><path class="cls-2" d="M30.63,12.72c.28,1.2.55,2.4.73,3.61.04.24.06.47.09.71-.14.17-.34.09-.51.1-.71.04-1.43-.08-2.15.09-.1.02-.21.03-.26.14-1.67-1.25-3.41-2.4-5.23-3.42-.88-.49-1.78-.93-2.66-1.41-.19-.1-.33-.04-.5.04-1.31.66-2.59,1.37-3.87,2.1-1.39.79-2.63,1.78-3.94,2.68-.03-.27-.24-.21-.41-.22-.66,0-1.32,0-1.98,0-.18,0-.36,0-.52-.1.2-1.64.5-3.27.93-4.86.7,0,1.4,0,2.1.01-.21.87-.42,1.74-.64,2.61-.02.09-.06.19.01.24.08.06.17,0,.25-.05.11-.08.23-.15.34-.23,1.43-1,2.87-1.97,4.41-2.78.14.2.35.19.57.19,2,0,3.99,0,5.99,0,.22,0,.46.04.57-.24,1.75.91,3.38,2.02,5.09,3.21-.18-.89-.34-1.66-.49-2.43.69,0,1.38,0,2.07,0Z"/><path class="cls-1" d="M11.88,31.11s-.03-.02-.04-.03c0,0,.02,0,.03,0,0,0,0,.02,0,.03h0Z"/><path class="cls-5" d="M24.53,23.09c0,2.26-1.85,4.1-4.09,4.09-2.25-.01-4.1-1.87-4.09-4.1,0-2.25,1.87-4.1,4.1-4.09,2.26,0,4.09,1.85,4.08,4.1ZM20.47,21.07c-1.13-.01-2.03.87-2.04,2.01,0,1.12.85,2,1.97,2.03,1.13.03,2.04-.85,2.06-1.98.02-1.13-.86-2.04-1.99-2.05Z"/><path class="cls-12" d="M20.47,21.07c1.13.01,2.01.92,1.99,2.05-.02,1.13-.93,2.01-2.06,1.98-1.12-.02-1.98-.91-1.97-2.03,0-1.13.91-2.02,2.04-2.01Z"/><circle class="cls-13" cx="20.4" cy="23.24" r="2.89"/></svg>