<?xml version="1.0" encoding="UTF-8"?><svg id="Calque_1" xmlns="http://www.w3.org/2000/svg" viewBox="0 0 55.08 41.24"><defs><style>.cls-1{fill:#c62882;}</style></defs><g id="FnYvyw"><path class="cls-1" d="M27.22,0c.9.27,1.81.5,2.69.8,4.23,1.46,5.83,4.84,4.17,9.01-1.82,4.56-5.35,7.18-9.97,8.45-2.48.68-5,.97-7.56.45-1.43-.29-2.64-1-3.5-2.22-.24-.33-.57-.82-.17-1.14.32-.26.59.25.85.46,1.03.86,2.23,1.23,3.53,1.23,5.47,0,9.99-1.99,13.27-6.47.65-.89,1.09-1.91,1.16-3.04.11-1.78-.5-2.79-2.15-3.5-2.03-.86-4.17-.86-6.27-.54-6.13.91-11.37,3.74-16.02,7.73-.89.76-1.61,1.69-2.19,2.71-1.52,2.69-1.22,5.12.89,7.38,1.63,1.74,3.66,3,5.46,4.55,1.43,1.23,1.46,1.23,3.17.3,1.79-.97,3.66-1.79,5.01-3.46.66-.82,1.63-1.36,2.67-1.67,1.57-.48,2.55.23,2.65,1.88.03.58-.37,1.39.92,1.23.79-.1.91.71.73,1.42-.38,1.47-.77,2.94-1.13,4.41-.16.65-.22,1.31-.07,2.25.41-.77.76-1.32,1.02-1.91,1.35-3,2.69-6,4.03-9,.14-.32.31-.66.34-1,.1-1.06.71-1.38,1.7-1.45,1.87-.13,2.05.04,1.57,1.81-.46,1.7-.4,3.36.51,4.92.39,0,.43-.35.55-.57,1.25-2.17,2.61-4.28,3.21-6.77.23-.97,2.66-1.48,3.36-.78.38.38.08.74-.04,1.07-.67,1.95-.55,3.81.46,5.63.27.5.45.65,1.02.39,1.96-.87,4.04-1.08,6.13-.72,2.94.5,5.03,2.08,5.88,5.06v1.49c-1,2.07-1.84,2.79-3.06,2.62-.05-.17.07-.27.19-.34,2.67-1.51,1.81-4.64-.44-5.92-2.58-1.47-5.3-1.55-8.11-.79-.64.18-.56.59-.42,1.07.47,1.63.04,2.99-1.24,4.1-.79.68-1.67,1.18-2.66,1.5-.65.21-1.3.48-1.9-.07-.6-.56-.51-1.26-.33-1.98.39-1.58,1.4-2.75,2.52-3.85.2-.2.66-.34.44-.74-.66-1.21-1.01-2.53-1.4-3.94-.92,1.55-1.72,3.01-2.64,4.39-.46.68-.56,1.26-.3,2.05.5,1.56.42,3.1-.86,4.32-1.13,1.09-2.53,1.69-4.09,1.81-.65.05-1.43.23-1.8-.54-.33-.7.23-1.2.62-1.69.97-1.22,1.97-2.41,2.94-3.63.17-.21.47-.4.3-.73-.71-1.33-1.17-2.75-1.62-4.44-1.41,3.43-2.85,6.54-4.55,9.52-.32.56-.63,1.11-1.09,1.56-.46.44-.92.92-1.66.72-.78-.22-1-.88-1.1-1.55-.11-.71-.08-1.45-.12-2.34-.71,1.34-1.13,2.66-1.94,3.77-.95,1.29-2.48,1.27-3.34-.08-1.03-1.6-1.41-3.38-1.16-5.27.13-.96.32-1.92.52-3.05-.86.5-1.57.97-2.33,1.33-.56.27-.5.55-.36,1.07.96,3.41.36,6.5-2.07,9.16-1.36,1.48-3.12,2.24-5,2.78h-2.76c-2.35-1.35-3.02-3.25-2.07-5.88.43-1.2,1.23-2.13,2.17-2.96,1.74-1.52,3.7-2.72,5.76-3.75.55-.27.62-.49.1-.85-.99-.68-1.96-1.39-2.95-2.07C4.26,23.65,1.36,21.46,0,17.86,0,17.08,0,16.3,0,15.52c.08-.11.19-.21.23-.33.84-2.6,2.45-4.7,4.45-6.49C9.2,4.67,14.51,2.11,20.32.53c.8-.22,1.67-.13,2.43-.53h4.47ZM12.37,31.3c-.01-.23-.03-.58-.04-.93-.03-.85-.35-.93-1.04-.49-1.19.77-2.38,1.53-3.47,2.43-1.13.94-2.11,1.99-2.5,3.47-.48,1.84.29,2.65,2.16,2.25.21-.04.41-.12.6-.2,2.52-1.03,4.28-3.66,4.29-6.53ZM18.96,30.76c.03.17.06.52.13.87.09.43,0,1.06.56,1.14.52.07.71-.52.9-.92,1.08-2.26,1.95-4.61,2.65-7.01.17-.58.6-1.4-.04-1.71-.59-.29-1.24.35-1.67.87-1.58,1.91-2.41,4.12-2.52,6.78ZM40.94,27.42c-1.03.78-1.63,1.83-1.99,3.02-.12.39-.08.73.51.51,1.27-.47,2.02-2.19,1.48-3.53ZM33.5,30.06c-.82.95-1.6,1.86-2.46,2.87,1.57-.48,2.55-1.64,2.46-2.87Z"/></g></svg>