<?xml version="1.0" encoding="UTF-8"?><svg id="Calque_1" xmlns="http://www.w3.org/2000/svg" viewBox="0 0 54.87 32.75"><defs><style>.cls-1{fill:#00cee4;}.cls-2{fill:#72d4e5;}</style></defs><path class="cls-1" d="M54.87,5.75c-.32.86-.61,1.73-.96,2.58-1.22,2.98-3.17,5.32-6.13,6.7-2.47,1.15-5.1,1.44-7.79,1.29-2.76-.15-5.34-.89-7.64-2.46-1.29-.88-2.41-1.95-3.51-3.05-1.22-1.22-2.4-2.52-3.94-3.35-2.9-1.57-6.5-1.11-9.08,1.14-.66.58-1.27,1.2-1.82,1.89-.06.08-.11.18-.28.19.95-3.43,2.47-6.45,5.5-8.49,1.8-1.21,3.82-1.83,5.96-2.06,2.47-.27,4.92-.14,7.31.59,2.53.77,4.6,2.25,6.45,4.07.97.95,1.92,1.92,2.91,2.84,3.08,2.84,7.55,2.95,10.82.17.67-.57,1.27-1.2,1.83-1.88.1-.12.15-.3.36-.27v.11Z"/><path class="cls-1" d="M26.12,32.75c-.54-.19-1.11-.16-1.66-.25-3.4-.51-6.19-2.18-8.59-4.56-.99-.98-1.94-2-3-2.91-3.29-2.85-7.56-2.84-10.86,0-.7.61-1.31,1.3-2.01,2.12.21-1.05.54-1.91.89-2.76,1.23-2.98,3.16-5.33,6.13-6.71,2.57-1.2,5.31-1.47,8.11-1.28,2.44.17,4.74.81,6.83,2.11,1.22.76,2.3,1.68,3.32,2.69,1.04,1.03,2.06,2.08,3.17,3.03,3.08,2.66,7.57,2.59,10.77-.34.63-.57,1.2-1.21,1.8-1.92-1.31,5.91-5.36,10.34-12.31,10.66-.76.03-1.52-.13-2.27.09h-.32Z"/><path class="cls-2" d="M26.44,32.75c.75-.22,1.51-.07,2.27-.09,0,.03-.01.06-.01.09h-2.25Z"/></svg>