<?xml version="1.0" encoding="UTF-8"?><svg id="Calque_1" xmlns="http://www.w3.org/2000/svg" viewBox="0 0 44.61 44.43"><defs><style>.cls-1{fill:#3178c5;}.cls-2{fill:#fefefe;}</style></defs><g id="_x31_D9cq6.tif"><path class="cls-1" d="M0,40.51c0-12.2,0-24.4,0-36.59,0-.03.02-.06.02-.09.02-.25.06-.49.13-.72C.68,1.43,1.79.39,3.5,0c.17-.04.34-.06.51-.09,12.2,0,24.4,0,36.59,0,.18.03.37.05.54.09,1.58.37,2.65,1.32,3.23,2.84.13.36.19.73.24,1.1v36.55c-.02.16-.04.32-.07.48-.31,1.71-1.69,3.12-3.39,3.46-.18.04-.36.06-.54.09H4.01s-.05-.02-.07-.02c-.26-.02-.51-.06-.75-.14-1.66-.53-2.71-1.63-3.1-3.34-.04-.17-.06-.34-.08-.51ZM27.62,35.42s0,.06,0,.09c0,1.39,0,2.77,0,4.16,0,.07.03.11.09.14.35.17.72.32,1.09.44.97.31,1.97.47,2.98.55,1.41.11,2.82.07,4.22-.2.86-.17,1.69-.44,2.45-.9.99-.59,1.73-1.41,2.15-2.49.22-.57.32-1.16.35-1.76.04-.77-.02-1.54-.26-2.28-.35-1.05-1.02-1.85-1.89-2.51-.76-.57-1.59-1-2.46-1.39-.74-.33-1.51-.63-2.23-1.01-.52-.27-1.01-.57-1.42-.99-.4-.41-.58-.9-.49-1.47.08-.5.39-.84.79-1.11.58-.37,1.23-.51,1.9-.57.64-.05,1.27-.01,1.9.09,1.15.18,2.23.55,3.21,1.18.03.02.05.05.09.04,0-.02,0-.03,0-.04,0-1.31,0-2.63,0-3.94,0-.06-.02-.08-.07-.1-.18-.06-.35-.12-.53-.18-.98-.3-1.99-.45-3.01-.51-1.23-.07-2.46-.05-3.68.18-.9.17-1.76.44-2.56.89-1.01.57-1.79,1.36-2.27,2.42-.27.59-.39,1.23-.43,1.88-.05.94.07,1.85.47,2.71.42.9,1.09,1.59,1.89,2.17.75.54,1.57.94,2.42,1.29.79.33,1.59.65,2.34,1.08.49.28.94.6,1.29,1.05.61.8.45,1.84-.37,2.42-.4.28-.85.43-1.32.52-.8.15-1.61.14-2.42.03-1.33-.19-2.55-.68-3.65-1.46-.19-.14-.38-.28-.57-.43ZM20.28,32.63c0-2.61,0-5.23,0-7.84,0-.11.02-.14.14-.14,1.78,0,3.56,0,5.35,0,.1,0,.12-.03.12-.12,0-1.11,0-2.23,0-3.34,0-.1-.02-.12-.12-.12-5.12,0-10.24,0-15.36,0-.1,0-.13.02-.13.12,0,1.11,0,2.21,0,3.32,0,.15-.02.14.14.14,1.76,0,3.51,0,5.27,0,.03,0,.06,0,.09,0,.05,0,.07.02.07.07,0,.04,0,.07,0,.11,0,5.2,0,10.4,0,15.61q0,.15.16.15c1.38,0,2.76,0,4.14,0,.11,0,.14-.02.14-.13,0-2.61,0-5.22,0-7.83Z"/><path class="cls-1" d="M0,40.51c.03.17.05.34.08.51.39,1.71,1.43,2.81,3.1,3.34.24.08.5.12.75.14.02,0,.05.01.07.02-1.31,0-2.61,0-3.92,0-.07,0-.09-.01-.09-.09,0-1.31,0-2.61,0-3.92Z"/><path class="cls-1" d="M40.6,44.52c.18-.03.36-.05.54-.09,1.71-.34,3.09-1.75,3.39-3.46.03-.16.05-.32.07-.48,0,1.31,0,2.63,0,3.94,0,.07-.01.09-.09.09-1.31,0-2.61,0-3.92,0Z"/><path class="cls-1" d="M4.01-.09c-.17.03-.34.05-.51.09C1.79.39.68,1.43.16,3.1c-.07.23-.11.48-.13.72,0,.03-.01.06-.02.09,0-1.31,0-2.61,0-3.92,0-.08.02-.09.09-.09,1.31,0,2.61,0,3.92,0Z"/><path class="cls-1" d="M44.61,3.94c-.05-.37-.1-.75-.24-1.1-.57-1.52-1.65-2.46-3.23-2.84-.18-.04-.36-.06-.54-.09,1.31,0,2.61,0,3.92,0,.07,0,.09.01.09.09,0,1.31,0,2.63,0,3.94Z"/><path class="cls-2" d="M27.62,35.42c.2.15.38.29.57.43,1.1.78,2.32,1.26,3.65,1.46.81.12,1.61.13,2.42-.03.47-.09.92-.24,1.32-.52.82-.58.98-1.62.37-2.42-.35-.45-.8-.77-1.29-1.05-.75-.43-1.54-.75-2.34-1.08-.85-.35-1.68-.75-2.42-1.29-.8-.58-1.46-1.27-1.89-2.17-.4-.86-.52-1.77-.47-2.71.04-.65.16-1.28.43-1.88.48-1.06,1.26-1.85,2.27-2.42.8-.45,1.66-.72,2.56-.89,1.22-.23,2.44-.25,3.68-.18,1.02.06,2.03.2,3.01.51.18.05.35.12.53.18.05.02.07.04.07.1,0,1.31,0,2.63,0,3.94,0,.01,0,.02,0,.04-.04,0-.07-.03-.09-.04-.98-.64-2.06-1-3.21-1.18-.63-.1-1.26-.14-1.9-.09-.67.06-1.32.19-1.9.57-.41.26-.71.61-.79,1.11-.1.57.09,1.06.49,1.47.41.42.91.72,1.42.99.72.38,1.49.67,2.23,1.01.86.39,1.7.81,2.46,1.39.87.66,1.54,1.46,1.89,2.51.25.74.3,1.5.26,2.28-.03.6-.13,1.2-.35,1.76-.43,1.08-1.16,1.9-2.15,2.49-.76.45-1.58.73-2.45.9-1.4.27-2.8.32-4.22.2-1.01-.08-2.01-.24-2.98-.55-.37-.12-.74-.27-1.09-.44-.06-.03-.09-.06-.09-.14,0-1.39,0-2.77,0-4.16,0-.03,0-.05,0-.09Z"/><path class="cls-2" d="M20.28,32.63c0,2.61,0,5.22,0,7.83,0,.11-.03.13-.14.13-1.38,0-2.76,0-4.14,0q-.16,0-.16-.15c0-5.2,0-10.4,0-15.61,0-.04,0-.07,0-.11,0-.05-.02-.07-.07-.07-.03,0-.06,0-.09,0-1.76,0-3.51,0-5.27,0-.16,0-.14.02-.14-.14,0-1.11,0-2.21,0-3.32,0-.1.03-.12.13-.12,5.12,0,10.24,0,15.36,0,.1,0,.12.02.12.12,0,1.11,0,2.23,0,3.34,0,.09-.02.12-.12.12-1.78,0-3.56,0-5.35,0-.11,0-.14.03-.14.14,0,2.61,0,5.23,0,7.84Z"/></g></svg>